<?xml version="1.0" encoding="UTF-8"?>
<!-- Creator: CorelDRAW 2021 (64-Bit) -->
<svg xmlns="http://www.w3.org/2000/svg" xml:space="preserve" width="1.70666in" height="1.70666in" version="1.1" style="shape-rendering:geometricPrecision; text-rendering:geometricPrecision; image-rendering:optimizeQuality; fill-rule:evenodd; clip-rule:evenodd"
viewBox="0 0 1706.66 1706.66">
 <g id="Layer_x0020_1">
  <metadata id="CorelCorpID_0Corel-Layer"/>
  <g id="_2863124724432">
   <path fill="#3770BF" d="M191.11 1426.67l0 -1146.67c0,-46 42.89,-88.89 88.89,-88.89l1146.67 0c46,0 88.89,42.89 88.89,88.89l0 1146.67c0,46 -42.89,88.89 -88.89,88.89l-1146.67 0c-46,0 -88.89,-42.89 -88.89,-88.89zm-191.11 -1160l0 1173.34c0,129.54 129.46,266.67 266.66,266.67l1173.34 0c43.87,0 74.62,-13.81 106.11,-27.22 82.7,-35.24 160.56,-142.74 160.56,-239.44l0 -1173.34c0,-70.96 -36.45,-136.46 -83.33,-183.34 -44.17,-44.16 -114.55,-83.32 -183.34,-83.32l-1173.34 0c-133.83,0 -266.66,132.83 -266.66,266.66z"/>
   <g>
    <path fill="#F05455" d="M946.67 755.55l0 244.44c-60.33,0 -103.63,25.67 -134.58,56.54 -96.87,96.62 -58.38,253.06 55.95,306.54 70.96,33.19 153.98,19.91 208.73,-32.97 28.61,-27.62 61.01,-71.94 61.01,-125.66l0 -346.67c69.87,0 191.11,13.11 191.11,-102.22 0,-49.09 -48.36,-93.33 -97.78,-93.33l-191.11 0c-48.36,0 -93.33,44.98 -93.33,93.33z"/>
    <path fill="#F05455" d="M377.78 471.11c0,53.67 41.59,97.78 88.89,97.78l773.34 0c47.3,0 88.89,-44.11 88.89,-97.78 0,-48.36 -44.97,-93.33 -93.33,-93.33l-764.44 0c-48.36,0 -93.33,44.97 -93.33,93.33z"/>
    <path fill="#F05455" d="M377.78 853.33c0,58.14 47.9,97.78 106.67,97.78l262.22 0c28.29,0 57.43,-10.36 73.89,-23.89 61,-50.14 40.28,-171.67 -73.89,-171.67l-262.22 0c-58.76,0 -106.67,39.64 -106.67,97.78z"/>
    <path fill="#F05455" d="M377.78 1231.11c0,54.8 44.99,97.78 93.33,97.78 75.63,0 151.33,14.48 184.64,-55.36 23.72,-49.73 2,-98.86 -39.78,-125.06 -28.03,-17.58 -104.35,-10.69 -149.31,-10.69 -47.14,0 -88.89,45.87 -88.89,93.33z"/>
   </g>
  </g>
 </g>
</svg>
